<svg width="24" height="24" viewBox="0 0 24 24" fill="none" xmlns="http://www.w3.org/2000/svg">
<g clip-path="url(#clip0_2157_2062)">
<path d="M12 5.33333L7.33333 0H0L9.33333 11.3333L17.014 8.16667L12 5.33333Z" fill="#55ACEE"/>
<path d="M16.6667 0L12 5.33333L15.5933 10.208L16.4113 9.21533L24 0H16.6667Z" fill="#3B88C3"/>
<path d="M15.47 10.684C15.5233 10.5393 15.5573 10.3853 15.5573 10.222C15.5573 9.86838 15.4168 9.52924 15.1668 9.2792C14.9167 9.02915 14.5776 8.88867 14.224 8.88867H9.77929C9.42567 8.88867 9.08653 9.02915 8.83648 9.2792C8.58643 9.52924 8.44596 9.86838 8.44596 10.222C8.44596 10.3853 8.47929 10.5393 8.53329 10.684C6.36129 11.9013 4.89063 14.222 4.89063 16.8887C4.88996 20.816 8.07396 24 12.0013 24C15.9286 24 19.1126 20.816 19.1126 16.8887C19.1126 14.222 17.642 11.9013 15.47 10.684Z" fill="#FF8A3B"/>
<path d="M9.41408 19.567L10.1994 18.7817C10.2386 18.739 10.2924 18.7127 10.3501 18.708C10.4078 18.7034 10.4652 18.7206 10.5107 18.7563C10.5107 18.7563 11.2834 19.3303 11.8814 19.3303C12.4181 19.3303 12.9667 18.8817 12.9667 18.333C12.9667 17.7843 12.4054 17.3237 11.4834 17.3237H11.0574C10.9954 17.3215 10.9365 17.2959 10.8927 17.2519C10.8489 17.208 10.8234 17.149 10.8214 17.087V16.0523C10.8214 15.915 10.9334 15.8157 11.0574 15.8157H11.4834C12.3561 15.8157 12.8167 15.3923 12.8167 14.8563C12.8167 14.3197 12.3561 13.9217 11.8194 13.9217C11.2707 13.9217 10.9221 14.2083 10.7354 14.4197C10.6474 14.5197 10.4987 14.5197 10.3994 14.433L9.63874 13.685C9.53808 13.597 9.55074 13.4483 9.63874 13.361C9.63874 13.361 10.6607 12.2637 12.0187 12.2637C13.4647 12.2637 14.7114 13.149 14.7114 14.545C14.7114 15.5043 13.9881 16.215 13.4274 16.4763V16.5143C14.0134 16.7637 14.9354 17.5363 14.9354 18.6083C14.9354 19.967 13.7514 20.9897 12.0307 20.9897C10.4614 20.9897 9.66274 20.2163 9.40141 19.8803C9.32608 19.791 9.33941 19.6537 9.41408 19.567Z" fill="#7C4119"/>
</g>
<defs>
<clipPath id="clip0_2157_2062">
<rect width="24" height="24" fill="white"/>
</clipPath>
</defs>
</svg>
