<svg width="20" height="20" viewBox="0 0 20 20" fill="none" xmlns="http://www.w3.org/2000/svg">
<g clip-path="url(#clip0_1920_10378)">
<path d="M15.2438 10.6051C15.2718 13.626 17.8939 14.6313 17.9229 14.6441C17.9007 14.715 17.5039 16.0767 16.5415 17.4832C15.7095 18.6993 14.846 19.9109 13.4857 19.9359C12.1492 19.9606 11.7193 19.1434 10.1912 19.1434C8.6635 19.1434 8.18598 19.9109 6.92071 19.9606C5.60769 20.0103 4.60782 18.6457 3.76896 17.434C2.05468 14.9557 0.744644 10.4309 2.50369 7.37651C3.37753 5.85968 4.93925 4.89924 6.63423 4.8746C7.92357 4.85003 9.14058 5.74203 9.92877 5.74203C10.7165 5.74203 12.1954 4.66933 13.7501 4.82686C14.4009 4.85397 16.2279 5.08971 17.4011 6.80692C17.3065 6.86552 15.2211 8.07956 15.2438 10.6051M12.7318 3.18724C13.429 2.34343 13.8981 1.16883 13.7701 0C12.7653 0.040381 11.5503 0.669587 10.8295 1.51289C10.1836 2.25975 9.61798 3.45505 9.77061 4.6007C10.8906 4.68737 12.0347 4.03156 12.7318 3.18724Z" fill="#B4B4B4"/>
</g>
<defs>
<clipPath id="clip0_1920_10378">
<rect width="20" height="20" fill="white"/>
</clipPath>
</defs>
</svg>
