<svg width="21" height="20" viewBox="0 0 21 20" fill="none" xmlns="http://www.w3.org/2000/svg">
<g clip-path="url(#clip0_1759_3871)">
<path d="M15.7438 10.6051C15.7718 13.626 18.3939 14.6313 18.4229 14.6441C18.4007 14.715 18.0039 16.0767 17.0415 17.4832C16.2095 18.6993 15.346 19.9109 13.9857 19.9359C12.6492 19.9606 12.2193 19.1434 10.6912 19.1434C9.1635 19.1434 8.68598 19.9109 7.42071 19.9606C6.10769 20.0103 5.10782 18.6457 4.26896 17.434C2.55468 14.9557 1.24464 10.4309 3.00369 7.37651C3.87753 5.85968 5.43925 4.89924 7.13423 4.8746C8.42357 4.85003 9.64058 5.74203 10.4288 5.74203C11.2165 5.74203 12.6954 4.66933 14.2501 4.82686C14.9009 4.85397 16.7279 5.08971 17.9011 6.80692C17.8065 6.86552 15.7211 8.07956 15.7438 10.6051M13.2318 3.18724C13.929 2.34343 14.3981 1.16883 14.2701 0C13.2653 0.040381 12.0503 0.669587 11.3295 1.51289C10.6836 2.25975 10.118 3.45505 10.2706 4.6007C11.3906 4.68737 12.5347 4.03156 13.2318 3.18724Z" fill="#1D1D1F"/>
</g>
<defs>
<clipPath id="clip0_1759_3871">
<rect width="20" height="20" fill="white" transform="translate(0.5)"/>
</clipPath>
</defs>
</svg>
