<svg width="20" height="20" viewBox="0 0 20 20" fill="none" xmlns="http://www.w3.org/2000/svg">
<path d="M12.9424 7.05781C13.0005 7.11585 13.0466 7.18478 13.0781 7.26066C13.1095 7.33653 13.1257 7.41786 13.1257 7.49999C13.1257 7.58213 13.1095 7.66346 13.0781 7.73933C13.0466 7.81521 13.0005 7.88414 12.9424 7.94218L7.94241 12.9422C7.88434 13.0003 7.8154 13.0463 7.73953 13.0777C7.66366 13.1092 7.58234 13.1253 7.50022 13.1253C7.4181 13.1253 7.33678 13.1092 7.26091 13.0777C7.18504 13.0463 7.1161 13.0003 7.05803 12.9422C6.99997 12.8841 6.9539 12.8152 6.92248 12.7393C6.89105 12.6634 6.87488 12.5821 6.87488 12.5C6.87488 12.4179 6.89105 12.3366 6.92248 12.2607C6.9539 12.1848 6.99997 12.1159 7.05803 12.0578L12.058 7.05781C12.1161 6.9997 12.185 6.9536 12.2609 6.92214C12.3368 6.89069 12.4181 6.8745 12.5002 6.8745C12.5824 6.8745 12.6637 6.89069 12.7396 6.92214C12.8154 6.9536 12.8844 6.9997 12.9424 7.05781ZM16.844 3.15625C16.4377 2.74994 15.9554 2.42764 15.4246 2.20775C14.8937 1.98786 14.3248 1.87468 13.7502 1.87468C13.1757 1.87468 12.6067 1.98786 12.0759 2.20775C11.545 2.42764 11.0627 2.74994 10.6565 3.15625L8.30803 5.5039C8.19076 5.62118 8.12488 5.78024 8.12488 5.94609C8.12488 6.11194 8.19076 6.271 8.30803 6.38828C8.42531 6.50555 8.58437 6.57144 8.75022 6.57144C8.91607 6.57144 9.07513 6.50555 9.19241 6.38828L11.5408 4.04453C12.129 3.46925 12.9204 3.14915 13.7431 3.15368C14.5658 3.15821 15.3536 3.48701 15.9354 4.06873C16.5172 4.65044 16.8462 5.43814 16.8508 6.26087C16.8555 7.0836 16.5355 7.87498 15.9604 8.46328L13.6112 10.8117C13.4939 10.9289 13.428 11.0878 13.4279 11.2536C13.4278 11.4194 13.4936 11.5784 13.6108 11.6957C13.7279 11.813 13.8869 11.8789 14.0527 11.879C14.2185 11.879 14.3775 11.8133 14.4948 11.6961L16.844 9.34374C17.2503 8.93748 17.5726 8.45517 17.7925 7.92434C18.0124 7.39351 18.1255 6.82457 18.1255 6.24999C18.1255 5.67542 18.0124 5.10648 17.7925 4.57565C17.5726 4.04482 17.2503 3.56251 16.844 3.15625ZM10.808 13.6109L8.4596 15.9594C8.1706 16.2549 7.82585 16.4901 7.44531 16.6514C7.06478 16.8128 6.65602 16.897 6.2427 16.8993C5.82938 16.9016 5.41972 16.8218 5.03743 16.6647C4.65515 16.5075 4.30783 16.2761 4.01559 15.9838C3.72335 15.6916 3.492 15.3442 3.33493 14.9619C3.17786 14.5796 3.09819 14.1699 3.10054 13.7566C3.10289 13.3433 3.18721 12.9345 3.34862 12.554C3.51002 12.1735 3.74531 11.8288 4.04085 11.5398L6.3885 9.19218C6.50578 9.07491 6.57166 8.91585 6.57166 8.74999C6.57166 8.58414 6.50578 8.42508 6.3885 8.30781C6.27123 8.19053 6.11217 8.12465 5.94632 8.12465C5.78046 8.12465 5.6214 8.19053 5.50413 8.30781L3.15647 10.6562C2.33596 11.4768 1.875 12.5896 1.875 13.75C1.875 14.9104 2.33596 16.0232 3.15647 16.8437C3.97699 17.6643 5.08984 18.1252 6.25022 18.1252C7.4106 18.1252 8.52346 17.6643 9.34397 16.8437L11.6924 14.4945C11.8096 14.3772 11.8754 14.2182 11.8753 14.0525C11.8752 13.8867 11.8093 13.7277 11.692 13.6105C11.5747 13.4934 11.4157 13.4276 11.2499 13.4277C11.0842 13.4277 10.9252 13.4937 10.808 13.6109Z" fill="#4F4F51"/>
</svg>
