<svg width="32" height="32" viewBox="0 0 32 32" fill="none" xmlns="http://www.w3.org/2000/svg">
<rect width="32" height="32" rx="4" fill="#FEEEFB"/>
<path d="M28 4H4V28H28V4Z" fill="#FEEEFB"/>
<path d="M21.3962 12.842V11.0053H21.1501C20.6426 11.0053 20.1844 10.6948 19.9913 10.2214C19.9913 10.2176 19.9913 10.2138 19.9875 10.2063C19.7943 9.74046 19.9004 9.19893 20.2563 8.84296L20.4305 8.66876L19.1316 7.36984L18.9574 7.54404C18.5977 7.9038 18.0637 8.00605 17.5941 7.81292C17.5903 7.81292 17.5866 7.81292 17.579 7.80913C17.1056 7.616 16.7951 7.16156 16.7951 6.65033V6.40039H14.9584V6.65033C14.9584 7.15778 14.6479 7.616 14.1745 7.80913C14.1707 7.80913 14.1594 7.81292 14.1556 7.8167C13.6898 8.00984 13.1483 7.9038 12.7923 7.54783L12.6181 7.37363L11.3192 8.67255L11.4934 8.84675C11.8531 9.20651 11.9554 9.74046 11.7623 10.21C11.7623 10.2138 11.7585 10.2176 11.7585 10.229C11.5653 10.7023 11.1109 11.0053 10.6035 11.0129H10.3535V12.8495M13.2922 12.8495V12.0391C13.2922 11.3688 13.5383 10.6986 14.0458 10.1911C15.0531 9.18 16.6966 9.18 17.7039 10.1911C18.2152 10.7023 18.4651 11.3726 18.4575 12.0429V12.8533" stroke="#4F4F51" stroke-width="0.75" stroke-miterlimit="10"/>
<path d="M24.3123 23.0631V11.6303C24.3123 11.2971 24.0397 11.0244 23.7064 11.0244H22.3394" stroke="#4F4F51" stroke-width="0.75" stroke-miterlimit="10"/>
<path d="M9.40683 11.0244H8.03975C7.7065 11.0244 7.43384 11.2971 7.43384 11.6303V23.0593" stroke="#4F4F51" stroke-width="0.75" stroke-miterlimit="10"/>
<path d="M19.5936 23.0635L18.9536 23.8777H12.7847L12.1447 23.0635H6.3999L6.42641 24.4495C6.44156 25.0895 6.96037 25.6007 7.60036 25.6007H24.1341C24.7741 25.6007 25.2967 25.0895 25.308 24.4495L25.3346 23.0635H19.5898H19.5936Z" stroke="#4F4F51" stroke-width="0.75" stroke-miterlimit="10"/>
<path d="M21.3961 14.4248H10.3496V21.1693H21.3961V14.4248Z" stroke="#4F4F51" stroke-width="0.75" stroke-miterlimit="10"/>
<path d="M17.8704 19.4879L19.4722 17.8861L17.8704 16.2842" stroke="#4F4F51" stroke-width="0.75" stroke-linejoin="round"/>
<path d="M13.8792 19.4879L12.2773 17.8861L13.8792 16.2842" stroke="#4F4F51" stroke-width="0.75" stroke-linejoin="round"/>
<path d="M16.6739 15.8906L15.072 19.8858" stroke="#4F4F51" stroke-width="0.75" stroke-linejoin="round"/>
</svg>
