<svg width="20" height="20" viewBox="0 0 20 20" fill="none" xmlns="http://www.w3.org/2000/svg">
<path d="M16 3H3.16669C2.85727 3 2.56052 3.12292 2.34173 3.34171C2.12294 3.5605 2.00002 3.85725 2.00002 4.16667V15.8333C1.99868 16.0558 2.06161 16.2739 2.18126 16.4615C2.30091 16.6491 2.47219 16.7981 2.6745 16.8906C2.82867 16.9624 2.99663 16.9997 3.16669 17C3.44057 16.9993 3.70536 16.9017 3.91408 16.7244L3.92065 16.7193L6.3021 14.6667H16C16.3094 14.6667 16.6062 14.5437 16.825 14.325C17.0438 14.1062 17.1667 13.8094 17.1667 13.5V4.16667C17.1667 3.85725 17.0438 3.5605 16.825 3.34171C16.6062 3.12292 16.3094 3 16 3ZM16 13.5H6.08335C5.94329 13.5001 5.80792 13.5505 5.702 13.6422L3.16669 15.8333V4.16667H16V13.5Z" fill="#006666"/>
</svg>
