<svg width="20" height="20" viewBox="0 0 20 20" fill="none" xmlns="http://www.w3.org/2000/svg">
<path d="M17.9425 6.06729L7.94254 16.0673C7.88449 16.1254 7.81556 16.1715 7.73969 16.203C7.66381 16.2344 7.58248 16.2506 7.50035 16.2506C7.41821 16.2506 7.33688 16.2344 7.26101 16.203C7.18514 16.1715 7.11621 16.1254 7.05816 16.0673L2.68316 11.6923C2.56588 11.575 2.5 11.416 2.5 11.2501C2.5 11.0843 2.56588 10.9252 2.68316 10.8079C2.80044 10.6906 2.9595 10.6248 3.12535 10.6248C3.2912 10.6248 3.45026 10.6906 3.56753 10.8079L7.50035 14.7415L17.0582 5.18292C17.1754 5.06564 17.3345 4.99976 17.5003 4.99976C17.6662 4.99976 17.8253 5.06564 17.9425 5.18292C18.0598 5.30019 18.1257 5.45925 18.1257 5.6251C18.1257 5.79096 18.0598 5.95002 17.9425 6.06729Z" fill="#2B8A3E"/>
</svg>
