<svg width="32" height="32" viewBox="0 0 32 32" fill="none" xmlns="http://www.w3.org/2000/svg">
<path d="M22.067 21.1832C22.1251 21.2412 22.1712 21.3102 22.2026 21.386C22.234 21.4619 22.2502 21.5432 22.2502 21.6253C22.2502 21.7075 22.234 21.7888 22.2026 21.8647C22.1712 21.9405 22.1251 22.0095 22.067 22.0675C22.009 22.1256 21.94 22.1717 21.8642 22.2031C21.7883 22.2345 21.707 22.2507 21.6249 22.2507C21.5427 22.2507 21.4614 22.2345 21.3855 22.2031C21.3097 22.1717 21.2407 22.1256 21.1827 22.0675L15.9999 16.8839L10.817 22.0675C10.6998 22.1848 10.5407 22.2507 10.3749 22.2507C10.209 22.2507 10.0499 22.1848 9.93267 22.0675C9.8154 21.9503 9.74951 21.7912 9.74951 21.6253C9.74951 21.4595 9.8154 21.3004 9.93267 21.1832L15.1163 16.0003L9.93267 10.8175C9.8154 10.7003 9.74951 10.5412 9.74951 10.3753C9.74951 10.2095 9.8154 10.0504 9.93267 9.93316C10.0499 9.81588 10.209 9.75 10.3749 9.75C10.5407 9.75 10.6998 9.81588 10.817 9.93316L15.9999 15.1168L21.1827 9.93316C21.2999 9.81588 21.459 9.75 21.6249 9.75C21.7907 9.75 21.9498 9.81588 22.067 9.93316C22.1843 10.0504 22.2502 10.2095 22.2502 10.3753C22.2502 10.5412 22.1843 10.7003 22.067 10.8175L16.8835 16.0003L22.067 21.1832Z" fill="#4F4F51"/>
</svg>
