<svg width="21" height="20" viewBox="0 0 21 20" fill="none" xmlns="http://www.w3.org/2000/svg">
<path d="M9.21009 4.11172C9.0633 3.96531 8.882 3.85824 8.68291 3.80037C8.48383 3.74251 8.27337 3.73572 8.07097 3.78064C7.86858 3.82556 7.68075 3.92073 7.52483 4.05738C7.36891 4.19402 7.24992 4.36774 7.17884 4.5625L3.07806 15.8422C3.0107 16.0282 2.98894 16.2276 3.01461 16.4238C3.04028 16.62 3.11264 16.8071 3.2256 16.9695C3.33857 17.1319 3.48884 17.2649 3.66382 17.3572C3.8388 17.4495 4.03336 17.4985 4.23119 17.5C4.37684 17.499 4.5212 17.4726 4.65775 17.4219L15.9367 13.3203C16.1315 13.2493 16.3053 13.1304 16.442 12.9745C16.5787 12.8186 16.674 12.6308 16.719 12.4284C16.764 12.226 16.7573 12.0155 16.6995 11.8164C16.6416 11.6173 16.5346 11.4359 16.3882 11.2891L9.21009 4.11172ZM8.55931 14.675L5.82494 11.9406L6.85306 9.11172L11.3882 13.6469L8.55931 14.675ZM4.26244 16.2375L5.35619 13.2367L7.26634 15.1469L4.26244 16.2375ZM12.6874 13.175L7.32494 7.8125L8.34056 5.01016L15.4835 12.1531L12.6874 13.175ZM12.9999 5.625C13.0117 5.20248 13.114 4.7874 13.2999 4.40781C13.714 3.58047 14.4952 3.125 15.4999 3.125C16.0234 3.125 16.3593 2.94609 16.5663 2.56172C16.6754 2.34668 16.7379 2.11111 16.7499 1.87031C16.7506 1.70455 16.817 1.54583 16.9347 1.42906C17.0523 1.31229 17.2115 1.24703 17.3773 1.24766C17.543 1.24828 17.7018 1.31472 17.8185 1.43237C17.9353 1.55002 18.0006 1.70924 17.9999 1.875C17.9999 2.87969 17.3343 4.375 15.4999 4.375C14.9765 4.375 14.6406 4.55391 14.4335 4.93828C14.3245 5.15332 14.262 5.38889 14.2499 5.62969C14.2496 5.71176 14.2332 5.79298 14.2015 5.86869C14.1698 5.9444 14.1235 6.01312 14.0652 6.07094C14.007 6.12876 13.9379 6.17454 13.8619 6.20567C13.786 6.23679 13.7047 6.25265 13.6226 6.25234C13.5405 6.25204 13.4593 6.23556 13.3836 6.20387C13.3079 6.17218 13.2392 6.12588 13.1813 6.06763C13.1235 6.00937 13.0777 5.9403 13.0466 5.86436C13.0155 5.78841 12.9996 5.70708 12.9999 5.625ZM11.1249 3.125V1.25C11.1249 1.08424 11.1908 0.925268 11.308 0.808058C11.4252 0.690848 11.5842 0.625 11.7499 0.625C11.9157 0.625 12.0747 0.690848 12.1919 0.808058C12.3091 0.925268 12.3749 1.08424 12.3749 1.25V3.125C12.3749 3.29076 12.3091 3.44973 12.1919 3.56694C12.0747 3.68415 11.9157 3.75 11.7499 3.75C11.5842 3.75 11.4252 3.68415 11.308 3.56694C11.1908 3.44973 11.1249 3.29076 11.1249 3.125ZM19.0671 9.55781C19.1251 9.61588 19.1712 9.68481 19.2025 9.76066C19.2339 9.83651 19.25 9.9178 19.25 9.99989C19.25 10.082 19.2338 10.1632 19.2023 10.2391C19.1709 10.3149 19.1248 10.3838 19.0667 10.4418C19.0087 10.4998 18.9397 10.5458 18.8639 10.5772C18.788 10.6086 18.7067 10.6247 18.6247 10.6247C18.5426 10.6246 18.4613 10.6084 18.3855 10.577C18.3097 10.5455 18.2408 10.4995 18.1827 10.4414L16.9327 9.19141C16.8155 9.07413 16.7496 8.91507 16.7496 8.74922C16.7496 8.58337 16.8155 8.42431 16.9327 8.30703C17.05 8.18976 17.2091 8.12387 17.3749 8.12387C17.5408 8.12387 17.6998 8.18976 17.8171 8.30703L19.0671 9.55781ZM19.4476 6.21797L17.5726 6.84297C17.4153 6.89539 17.2437 6.88319 17.0954 6.80906C16.9471 6.73492 16.8344 6.60492 16.782 6.44766C16.7295 6.29039 16.7417 6.11874 16.8159 5.97047C16.89 5.8222 17.02 5.70945 17.1773 5.65703L19.0523 5.03203C19.2095 4.97961 19.3812 4.99181 19.5295 5.06594C19.6777 5.14008 19.7905 5.27008 19.8429 5.42734C19.8953 5.58461 19.8831 5.75626 19.809 5.90453C19.7349 6.0528 19.6049 6.16555 19.4476 6.21797Z" fill="#006666"/>
</svg>
