<svg width="20" height="20" viewBox="0 0 20 20" fill="none" xmlns="http://www.w3.org/2000/svg">
<g clip-path="url(#clip0_1759_5546)">
<path d="M19.5367 10.1871C19.5367 9.36767 19.4703 8.76973 19.3264 8.14966H9.96973V11.848H15.4619C15.3512 12.7671 14.7532 14.1512 13.4245 15.0813L13.4058 15.2051L16.3642 17.4969L16.5692 17.5174C18.4516 15.7789 19.5367 13.221 19.5367 10.1871Z" fill="#4285F4"/>
<path d="M9.96957 19.9312C12.6603 19.9312 14.9191 19.0453 16.569 17.5173L13.4243 15.0812C12.5828 15.6681 11.4533 16.0777 9.96957 16.0777C7.33422 16.0777 5.09751 14.3393 4.30018 11.9365L4.18331 11.9464L1.10712 14.3271L1.06689 14.439C2.70567 17.6944 6.07186 19.9312 9.96957 19.9312Z" fill="#34A853"/>
<path d="M4.30017 11.9366C4.08978 11.3165 3.96803 10.6521 3.96803 9.96559C3.96803 9.27902 4.08978 8.61467 4.2891 7.9946L4.28352 7.86254L1.16879 5.4436L1.06688 5.49208C0.391464 6.84299 0.00390625 8.36002 0.00390625 9.96559C0.00390625 11.5712 0.391464 13.0881 1.06688 14.439L4.30017 11.9366Z" fill="#FBBC05"/>
<path d="M9.96957 3.85336C11.8409 3.85336 13.1032 4.66168 13.8229 5.33718L16.6354 2.59107C14.9081 0.985496 12.6603 0 9.96957 0C6.07186 0 2.70567 2.23672 1.06689 5.49214L4.28911 7.99466C5.09751 5.59183 7.33422 3.85336 9.96957 3.85336Z" fill="#EB4335"/>
</g>
<defs>
<clipPath id="clip0_1759_5546">
<rect width="20" height="20" fill="white"/>
</clipPath>
</defs>
</svg>
