<svg width="32" height="32" viewBox="0 0 32 32" fill="none" xmlns="http://www.w3.org/2000/svg">
<rect width="32" height="32" rx="4" fill="#F8F2FF"/>
<path d="M24.0067 17.9466H16.926C16.6637 17.9466 16.451 18.1592 16.451 18.4216C16.451 18.6839 16.6637 18.8966 16.926 18.8966H17.7624C17.4316 19.1371 17.051 19.2941 16.6319 19.3595C15.8913 19.4749 15.1003 19.2858 14.4035 18.8268C13.7278 18.3826 13.2659 17.7019 13.1027 16.9104C12.9395 16.1188 13.0945 15.3107 13.5391 14.635C13.8763 14.1229 14.7203 13.4319 15.3197 13.1626L16.2806 15.0152C16.3387 15.1271 16.4387 15.2113 16.5589 15.2494C16.6057 15.2642 16.654 15.2716 16.7023 15.2716C16.7778 15.2716 16.8529 15.2536 16.9212 15.2181L17.0127 15.1706L17.6587 16.4161C17.7432 16.579 17.909 16.6725 18.0808 16.6725C18.1543 16.6725 18.2291 16.6553 18.2989 16.6191L19.8471 15.8168C19.9589 15.7589 20.0431 15.6588 20.0813 15.5387C20.1194 15.4186 20.1082 15.2883 20.0502 15.1765L19.4035 13.9292L19.6148 13.8195C19.8475 13.6986 19.9384 13.412 19.8176 13.1792L16.8114 7.3828C16.7534 7.27094 16.6533 7.18672 16.5332 7.14867C16.413 7.11058 16.2828 7.12183 16.1709 7.17993L16.079 7.22762L15.161 5.45662C15.103 5.34471 15.0029 5.26045 14.8827 5.2224C14.7626 5.18426 14.6322 5.19561 14.5203 5.2537L12.9722 6.05797C12.7396 6.17886 12.6488 6.46548 12.7696 6.69823L13.6883 8.46889L13.477 8.57861C13.2443 8.69945 13.1534 8.98607 13.2742 9.21887L13.8234 10.2777C12.6643 10.7592 11.6903 11.5657 10.9953 12.623C9.09352 15.5142 9.89812 19.4146 12.7891 21.3176C13.1527 21.5568 13.5326 21.7522 13.9222 21.907V24.0157H10.0987C9.93992 24.0157 9.79163 24.0951 9.70356 24.2272L7.67992 27.2617C7.58269 27.4074 7.57366 27.5948 7.65626 27.7493C7.73891 27.9038 7.89989 28.0002 8.07507 28.0002H23.4209C23.5994 28.0002 23.7628 27.9002 23.844 27.7412C23.9251 27.5823 23.9103 27.3912 23.8057 27.2467L21.6094 24.2123C21.52 24.0889 21.3769 24.0157 21.2246 24.0157H17.9064V22.1225C19.3255 21.7327 20.6145 20.8471 21.4851 19.5245C21.4881 19.52 21.491 19.5155 21.4938 19.5108L21.8689 18.8965H24.0068C24.2691 18.8965 24.4818 18.6839 24.4818 18.4215C24.4817 18.1592 24.269 17.9466 24.0067 17.9466ZM18.2835 15.557L17.8773 14.7739L18.5817 14.4079L18.9882 15.1919L18.2835 15.557ZM18.7557 13.195L16.9052 14.1559L15.8479 12.1175L17.6914 11.143L18.7557 13.195ZM16.0955 8.29176C16.1079 8.28535 16.1198 8.27817 16.1315 8.27076L16.1868 8.24203L17.254 10.2997L15.4104 11.2742L14.3361 9.203L14.5396 9.09731C14.5422 9.09608 14.5448 9.09518 14.5473 9.09389L16.0955 8.29176ZM14.5364 6.31595L15.2359 7.66542L14.5315 8.03117L13.8315 6.68212L14.5364 6.31595ZM20.9821 24.9658L22.4907 27.0502H8.9628L10.3528 24.9658H14.3972H17.4314H20.9821ZM14.8721 24.0158V22.3519H16.9564V24.0158H14.8721ZM20.6873 19.0088C19.664 20.5582 17.964 21.3995 16.2318 21.3994C15.2272 21.3993 14.2114 21.1162 13.3112 20.5241C10.8579 18.909 10.175 15.5988 11.7891 13.1449C12.3937 12.2251 13.2472 11.5298 14.263 11.1252L14.8821 12.3187C14.1201 12.6778 13.1734 13.4628 12.7457 14.1127C12.1615 15.0003 11.9578 16.062 12.1723 17.1022C12.3867 18.1425 12.9938 19.0368 13.8813 19.6204C14.6005 20.0941 15.4068 20.3425 16.2019 20.3425C16.3951 20.3425 16.5879 20.3278 16.7784 20.2981C17.7066 20.1534 18.5207 19.6585 19.0977 18.8966H20.7558L20.6873 19.0088Z" fill="#4F4F51"/>
</svg>
