<svg width="32" height="32" viewBox="0 0 32 32" fill="none" xmlns="http://www.w3.org/2000/svg">
<rect width="32" height="32" rx="4" fill="#EEFEF3"/>
<path d="M26.8212 9.5627C26.7537 10.0349 26.72 10.5071 26.5851 10.9793C26.3827 11.6876 26.0791 12.3621 25.6744 13.0029C25.2022 13.7787 24.6288 14.4195 23.9206 14.9929C23.0774 15.7012 22.0993 16.2071 21.0537 16.4769C20.5815 16.6118 20.1093 16.6793 19.6034 16.7467C19.3673 16.7467 19.1312 16.7805 18.8614 16.7805C18.4904 16.7805 18.1194 16.7805 17.7484 16.713C17.4111 16.6793 17.1075 16.5781 16.804 16.5444C16.2981 16.4432 15.7922 16.3083 15.2525 16.2745C14.6791 16.2408 14.1058 16.2071 13.5324 16.2745C13.0602 16.3083 12.6217 16.4095 12.1833 16.5106C11.475 16.713 10.7667 17.0166 10.1596 17.3876C9.5525 17.7586 9.01286 18.197 8.54067 18.7029C8.20339 19.074 7.89984 19.4787 7.59629 19.9172C7.46137 20.1195 7.32646 20.3556 7.22528 20.5917C7.02291 21.0302 6.82055 21.4349 6.68563 21.9071C6.55072 22.3793 6.85427 22.5142 7.22528 22.5142C7.19155 22.7166 7.1241 22.9189 6.92173 23.0201C6.68563 23.155 6.44954 23.1213 6.24717 22.9864C6.01108 22.8177 5.97735 22.5817 6.01108 22.3118C6.07853 21.7385 6.2809 21.1651 6.51699 20.6254C6.95546 19.6473 7.52883 18.7704 8.30457 18.0284C9.24895 17.084 10.3957 16.4095 11.6436 15.971C12.3182 15.7349 13.0265 15.6 13.7685 15.5325C14.2744 15.4988 14.7803 15.5325 15.2862 15.5325C15.3537 15.5325 15.3874 15.5325 15.3537 15.4313C15.2188 14.9592 15.0839 14.487 15.0164 14.0148C14.9152 13.3065 14.9152 12.5982 15.0164 11.9237C15.0839 11.2491 15.2525 10.6083 15.5223 10.0012C15.8596 9.15797 16.3318 8.41596 16.9052 7.77513C17.7484 6.83075 18.7602 6.12246 19.9069 5.65027C20.6827 5.34672 21.4584 5.14436 22.2679 5.04317C22.504 5.04317 22.7401 4.97572 22.9762 5.00944C23.2797 5.00944 23.5158 5.24554 23.5496 5.54909C23.4484 5.54909 23.3472 5.54909 23.2797 5.54909C22.7401 5.58282 22.1667 5.61655 21.6271 5.75146C20.9862 5.88637 20.3791 6.05501 19.8058 6.32483C18.9626 6.72956 18.1868 7.26921 17.546 7.97749C17.2425 8.31477 16.9726 8.65205 16.7365 9.02306C16.3318 9.66389 16.0282 10.3384 15.8596 11.0805C15.7584 11.5526 15.6572 12.0248 15.6572 12.5308C15.6572 13.0704 15.6572 13.61 15.7584 14.116C15.8596 14.6219 15.9608 15.0941 16.1294 15.5663C16.1294 15.6 16.1294 15.6337 16.1969 15.6674C16.433 15.7012 16.6691 15.7349 16.9052 15.8024H16.9726C17.0064 15.8698 17.0738 15.8698 17.1413 15.9035C17.8496 16.0722 18.5916 16.1396 19.2998 16.1059C19.5359 16.1059 19.7383 16.1059 19.9744 16.0384C20.0756 16.0384 20.1768 16.0385 20.2442 15.971C20.278 16.0047 20.3454 15.971 20.3791 15.971C20.8176 15.9035 21.2223 15.7686 21.6271 15.6C21.8969 15.5325 22.133 15.3976 22.3691 15.2627C22.6726 15.1278 22.9425 14.9592 23.2123 14.7568C23.2797 14.7231 23.3472 14.6893 23.4146 14.5882H23.4821C23.617 14.4195 23.7857 14.3521 23.9206 14.1834C23.988 14.116 24.0892 14.0485 24.1567 13.9473C24.359 13.745 24.5614 13.5763 24.6963 13.3402C24.7638 13.239 24.8649 13.1379 24.9324 13.0367C24.9999 12.9692 25.0336 12.9018 25.0673 12.8006C25.1348 12.8006 25.1348 12.7331 25.1685 12.6657C25.3371 12.3958 25.5058 12.0923 25.6407 11.7887C25.7081 11.7213 25.7081 11.6538 25.7419 11.5864C25.8093 11.4177 25.9105 11.2828 25.9105 11.1142C26.0117 10.9455 26.0454 10.7432 26.1129 10.5745C26.1466 10.3722 26.1803 10.1698 26.2478 9.96744C26.349 9.63016 26.5851 9.46152 26.9223 9.49525L26.8212 9.5627Z" fill="#4F4F51"/>
<path d="M16.5342 17.1855C16.7703 17.1855 17.0402 17.2867 17.2763 17.3542C17.3437 17.3542 17.3437 17.4216 17.3437 17.4554C17.5461 18.0625 17.681 18.6696 17.7484 19.3104C17.8496 20.1536 17.7822 20.9631 17.5798 21.7725C17.31 22.7506 16.8715 23.6276 16.197 24.437C15.455 25.314 14.578 25.9548 13.5325 26.427C12.9591 26.6968 12.3183 26.8654 11.6774 26.9329C11.1378 27.0004 10.5981 27.0003 10.0585 27.0003C10.0248 27.0003 9.99104 27.0003 9.92358 27.0003C9.92358 26.7643 10.126 26.5956 10.3283 26.5282C10.5644 26.4607 10.8005 26.5282 11.0366 26.4944C11.1378 26.4944 11.239 26.4944 11.3064 26.4607C11.5762 26.4607 11.8461 26.3932 12.0822 26.3258C12.1496 26.3258 12.2171 26.3258 12.2508 26.2583C12.4194 26.2583 12.5544 26.1909 12.723 26.1572C12.9928 26.056 13.2289 25.9548 13.4987 25.8536C13.5325 25.8536 13.5662 25.8536 13.5999 25.8536C13.7686 25.7524 13.9709 25.6512 14.1733 25.5501C14.207 25.5501 14.2407 25.4826 14.2745 25.4826C14.578 25.2802 14.8478 25.0779 15.1177 24.808C15.2863 24.6394 15.455 24.4708 15.6236 24.3021C15.8597 24.0323 16.1295 23.7625 16.2644 23.4252C16.2644 23.3915 16.3319 23.324 16.3319 23.2903C16.3993 23.1554 16.5005 22.9867 16.568 22.8518C16.6692 22.6495 16.7366 22.4471 16.8041 22.2447C16.8715 22.0761 16.939 21.9074 16.939 21.7051C16.939 21.6376 16.9727 21.5364 17.0064 21.469C17.0064 21.3341 17.0739 21.1992 17.0739 21.0305C17.1076 20.6595 17.1413 20.2885 17.1076 19.8838C17.1076 19.7826 17.1076 19.6814 17.0402 19.5802C17.0402 19.3779 17.0064 19.1755 16.9727 18.9731C16.9727 18.8719 16.9727 18.7708 16.9052 18.7033C16.9052 18.5347 16.8378 18.3323 16.7703 18.1637C16.6692 17.8938 16.568 17.624 16.4668 17.3205L16.5342 17.1855Z" fill="#4F4F51"/>
<path d="M19.2661 7.43794C19.4685 7.30303 19.6708 7.20184 19.9069 7.06693C19.9069 7.06693 19.9744 7.06693 19.9744 7.0332C20.1768 7.23557 20.4466 7.37048 20.6827 7.53912C21.3572 8.01131 22.0655 8.51723 22.7401 8.98942C23.5158 9.52906 24.3253 10.1024 25.101 10.6421C25.3371 10.8107 25.6069 10.9794 25.843 11.1817C25.843 11.3504 25.7419 11.4853 25.6744 11.6539C25.6744 11.7214 25.6744 11.7888 25.5732 11.8563C25.2697 11.6539 24.9998 11.4516 24.6963 11.2492C23.4146 10.3385 22.133 9.46161 20.8851 8.55096C20.3454 8.17995 19.8058 7.80894 19.2661 7.43794Z" fill="#4F4F51"/>
<path d="M14.1733 25.4147C13.9709 25.5158 13.8023 25.617 13.5999 25.7182C13.5999 25.7182 13.5324 25.7182 13.4987 25.7182C12.9253 25.3135 12.3857 24.9087 11.8123 24.504C10.3957 23.4922 8.94545 22.4803 7.52888 21.4685C7.52888 21.4685 7.49515 21.4685 7.46143 21.4348C7.52888 21.1987 7.63006 20.9963 7.76498 20.7939C8.00107 20.9289 8.16971 21.0975 8.37208 21.2324C10.2946 22.6152 12.2171 23.9644 14.1733 25.3472V25.4147Z" fill="#4F4F51"/>
<path d="M12.2845 26.2245C12.2845 26.2919 12.1833 26.2582 12.1158 26.2919C11.846 26.3594 11.6099 26.4268 11.3401 26.4268C10.733 26.0558 10.1596 25.6174 9.58625 25.2126C9.38388 25.0777 9.18152 24.9428 8.97915 24.7742C8.84424 24.673 8.81051 24.5043 8.87797 24.3357C8.94542 24.1671 9.08033 24.0996 9.24897 24.0996C9.35016 24.0996 9.45134 24.1671 9.5188 24.2345C9.92353 24.5381 10.362 24.8416 10.8005 25.1452C11.2052 25.4487 11.5762 25.7185 11.9809 25.9884C12.0821 26.0558 12.1833 26.157 12.2845 26.2245Z" fill="#4F4F51"/>
<path d="M21.2224 6.59495C21.4585 6.52749 21.7283 6.46003 21.9982 6.42631C22.0656 6.42631 22.1331 6.39258 22.2005 6.39258C22.5041 6.6624 22.8751 6.86477 23.2124 7.10086C23.5496 7.37069 23.9206 7.57305 24.2579 7.84288C24.3591 7.94406 24.4266 8.04524 24.3928 8.21388C24.3254 8.44998 24.0893 8.55116 23.8869 8.44998C23.6845 8.34879 23.5159 8.18015 23.3473 8.04524C22.639 7.53932 21.9644 7.06714 21.2899 6.56122L21.2224 6.59495Z" fill="#4F4F51"/>
<path d="M8.4057 23.5596C8.4057 23.7957 8.23706 23.9643 8.00096 23.9643C7.76487 23.9643 7.5625 23.7957 7.5625 23.5258C7.5625 23.2897 7.76487 23.1211 7.96723 23.1211C8.20333 23.1211 8.4057 23.3235 8.4057 23.5596Z" fill="#4F4F51"/>
<path d="M25.2698 8.65189C25.5059 8.65189 25.7083 8.85426 25.6745 9.05663C25.6745 9.29272 25.4722 9.49509 25.2361 9.46136C25 9.46136 24.7976 9.25899 24.7976 9.0229C24.7976 8.7868 25 8.61816 25.2361 8.61816L25.2698 8.65189Z" fill="#4F4F51"/>
<path d="M15.1176 24.6727C13.836 23.762 12.5543 22.8514 11.2389 21.9407C10.3283 21.2999 9.41763 20.6253 8.47325 19.9845C8.43953 19.9845 8.4058 19.9171 8.37207 19.9171C8.47325 19.7484 8.60817 19.5798 8.74308 19.4449C8.74308 19.4449 8.7768 19.4111 8.81053 19.4111C9.04663 19.546 9.21527 19.7147 9.45136 19.8496C10.4632 20.5579 11.475 21.2662 12.4869 22.0082C13.4987 22.7165 14.5443 23.391 15.5224 24.133C15.5561 24.133 15.5898 24.2005 15.6573 24.2005C15.4886 24.3691 15.32 24.5378 15.1514 24.7064L15.1176 24.6727Z" fill="#4F4F51"/>
<path d="M10.1595 18.1631C10.5305 18.4329 10.9015 18.669 11.2725 18.9388C12.0146 19.4785 12.7903 19.9844 13.5323 20.524C14.5104 21.2323 15.5222 21.9069 16.5004 22.6152C16.5341 22.6152 16.5678 22.6826 16.6015 22.6826C16.5341 22.8513 16.4666 22.9862 16.3654 23.1211C16.3654 23.1548 16.298 23.2223 16.298 23.256C14.9826 22.3116 13.6335 21.401 12.3181 20.4566C11.4749 19.8495 10.598 19.2761 9.75478 18.669C9.72106 18.6353 9.6536 18.6015 9.61987 18.5678C9.78851 18.3992 9.95715 18.2643 10.1932 18.1631H10.1595Z" fill="#4F4F51"/>
<path d="M11.9471 17.2525C12.0145 17.3537 12.1157 17.3874 12.1832 17.4548C13.3637 18.2643 14.5104 19.0738 15.6909 19.8833C16.1293 20.1868 16.6015 20.5241 17.04 20.8276C17.04 20.8276 17.0737 20.8276 17.1075 20.8276C17.1075 20.9625 17.04 21.0975 17.04 21.2661C17.04 21.3335 17.04 21.4347 16.9725 21.5022C16.6015 21.2661 16.2305 20.9963 15.8595 20.7602C14.9826 20.1531 14.1057 19.5122 13.195 18.9051C12.5879 18.4667 11.9471 18.0282 11.3063 17.6235C11.2725 17.6235 11.2388 17.5898 11.2051 17.5223C11.3063 17.4211 11.4074 17.4211 11.5424 17.3537C11.6773 17.2862 11.8122 17.2525 11.9471 17.2188V17.2525Z" fill="#4F4F51"/>
<path d="M17.1077 19.4448C16.4331 19.0063 15.7923 18.5341 15.1177 18.062C14.6793 17.7584 14.2408 17.4549 13.8023 17.1513C13.7011 17.0838 13.6 17.0164 13.4988 16.9152C13.6674 16.8478 13.8361 16.8815 13.971 16.8815C14.1733 16.8815 14.342 16.8815 14.5443 16.8815C14.5781 16.8815 14.6118 16.9489 14.6455 16.9489C15.4213 17.4886 16.1633 17.9945 16.939 18.5341C17.0065 18.6016 16.9727 18.7028 17.0065 18.804C17.0065 19.0063 17.1077 19.2087 17.0739 19.4111L17.1077 19.4448Z" fill="#4F4F51"/>
<path d="M18.3218 8.14648C18.3893 8.24767 18.4905 8.2814 18.5579 8.31512C19.0638 8.6524 19.536 9.02341 20.0082 9.36069C20.8514 9.96779 21.6946 10.5412 22.5378 11.1483C23.3136 11.6879 24.0893 12.2613 24.865 12.8009C24.865 12.8009 24.9325 12.8347 24.9325 12.8684C24.9325 12.9696 24.8313 13.037 24.7976 13.1045C24.7301 13.2057 24.6289 13.3068 24.5615 13.408C24.1568 13.1045 23.7183 12.8009 23.3136 12.4974C21.897 11.4855 20.4467 10.4737 19.0301 9.46187C18.6591 9.19205 18.2881 8.95595 17.9171 8.68613C17.9171 8.68613 17.8496 8.6524 17.8159 8.6524C17.9508 8.45004 18.1532 8.31512 18.3218 8.14648Z" fill="#4F4F51"/>
<path d="M23.3135 14.6222C22.5715 14.1163 21.8295 13.5766 21.0875 13.0707C20.1431 12.3962 19.1987 11.7216 18.2544 11.047C17.8159 10.7435 17.3774 10.4399 16.939 10.1027C17.0064 9.9003 17.1076 9.69794 17.2425 9.5293C18.052 10.1027 18.8952 10.676 19.7046 11.2494C20.649 11.924 21.5934 12.5985 22.5378 13.2731C22.9762 13.5766 23.4147 13.8802 23.8532 14.2175C23.7183 14.3524 23.5496 14.4536 23.4147 14.6222C23.4147 14.6222 23.381 14.6222 23.3473 14.6222H23.3135Z" fill="#4F4F51"/>
<path d="M21.5259 15.6337C20.8176 15.1278 20.1093 14.6219 19.401 14.116C18.6253 13.5763 17.8833 13.0367 17.1075 12.497C16.8377 12.3284 16.5679 12.126 16.3318 11.9237C16.3318 11.6876 16.3992 11.4515 16.433 11.2491C16.433 11.2491 16.433 11.2154 16.4667 11.1816C16.7028 11.2828 16.8714 11.4515 17.0738 11.5864C18.1868 12.3958 19.3336 13.1716 20.4466 13.9811C21.02 14.3858 21.5596 14.7905 22.133 15.1615C22.1667 15.1615 22.2004 15.229 22.2342 15.2627C21.9981 15.3976 21.762 15.5325 21.4921 15.6L21.5259 15.6337Z" fill="#4F4F51"/>
<path d="M16.2644 13.2051C16.2644 13.2388 16.2644 13.2725 16.3319 13.2725C17.5461 14.1157 18.7265 14.9589 19.9407 15.8021C20.0082 15.8696 20.0757 15.9033 20.1431 15.9708C20.0757 16.0382 19.9745 16.0382 19.8733 16.0382C19.6372 16.0382 19.4348 16.0719 19.1987 16.1057C19.0975 16.0382 19.0301 15.9708 18.9289 15.937C18.0857 15.3299 17.2425 14.7566 16.3993 14.1495C16.3319 14.0483 16.3319 13.9134 16.3319 13.8122C16.3319 13.6098 16.2644 13.4074 16.2644 13.2051Z" fill="#4F4F51"/>
</svg>
