<svg width="32" height="32" viewBox="0 0 32 32" fill="none" xmlns="http://www.w3.org/2000/svg">
<rect width="32" height="32" rx="4" fill="#EEFEF3"/>
<g clip-path="url(#clip0_2157_4110)">
<path d="M16.0781 25.1532C15.3642 25.1532 14.6128 25.1532 13.8989 25.1532C13.5607 25.1532 13.3353 24.8177 13.5232 24.5194C13.5983 24.4449 13.711 24.3703 13.8238 24.333C13.9365 24.333 14.0868 24.333 14.1995 24.333C15.4769 24.333 16.7544 24.333 18.0318 24.333C18.1069 24.333 18.2197 24.333 18.2948 24.333C18.5202 24.3703 18.6705 24.5567 18.6705 24.7804C18.6705 25.0041 18.4827 25.1532 18.2572 25.1532C17.7312 25.1532 17.1677 25.1532 16.6416 25.1532C16.4538 25.1532 16.2659 25.1532 16.0781 25.1532Z" fill="#4F4F51"/>
<path d="M15.1763 20.6419C15.0636 20.5674 14.9884 20.5301 14.9133 20.4928C14.0491 20.0082 13.2226 19.4862 12.5087 18.7779C12.1706 18.4051 11.87 17.995 11.6821 17.5476C11.5694 17.2866 11.1937 17.212 10.9683 17.3984C10.0665 18.2932 9.54052 19.3371 9.4278 20.6047C9.4278 20.7911 9.4278 20.8656 9.61566 20.9402C10.2168 21.2012 10.555 21.835 10.4047 22.4687C10.2544 23.1025 9.69081 23.5499 9.01451 23.5499C8.37579 23.5499 7.81221 23.0652 7.6995 22.4315C7.58678 21.8722 7.84978 21.2757 8.41336 20.9775C8.56365 20.9029 8.60122 20.8284 8.60122 20.6792C8.63879 19.4862 9.01451 18.4423 9.76595 17.5103C9.95381 17.2866 10.1417 17.0629 10.3295 16.8392C10.3671 16.8019 10.4422 16.7274 10.4798 16.6901C10.555 16.5783 10.5174 16.4664 10.3671 16.4664C10.0665 16.4664 9.80352 16.4664 9.50295 16.4664C9.4278 16.4664 9.35266 16.4664 9.27751 16.4664C8.71394 16.4664 8.11279 16.4664 7.54921 16.4664C7.32378 16.4664 7.06077 16.4664 6.83534 16.4664C6.7602 16.4664 6.68505 16.541 6.64748 16.5783C6.34691 17.3239 5.59547 17.6221 4.84403 17.2866C4.16774 16.9884 3.86716 16.3546 4.05502 15.6835C4.24288 15.0124 4.84403 14.6023 5.5579 14.6769C6.04633 14.7515 6.42205 14.9751 6.60991 15.4225C6.68505 15.5717 6.7602 15.6462 6.94806 15.6089C7.17349 15.6089 7.36135 15.6089 7.58678 15.6089C8.18793 15.6089 8.75151 15.6089 9.35266 15.6089C9.69081 15.6089 10.029 15.6089 10.3295 15.6089C10.4047 15.6089 10.4798 15.6089 10.5174 15.5344C10.5174 15.5344 10.5174 15.3852 10.4422 15.348C10.1417 15.0124 9.84109 14.6769 9.57809 14.3414C8.93937 13.4466 8.63879 12.4773 8.60122 11.3961C8.60122 11.247 8.56365 11.1724 8.41336 11.0979C7.84978 10.7996 7.54921 10.1658 7.73707 9.56932C7.92493 8.89825 8.45093 8.48816 9.12723 8.52544C9.76595 8.52544 10.292 8.97282 10.4422 9.6066C10.5925 10.2404 10.2544 10.9115 9.65323 11.1351C9.46537 11.2097 9.4278 11.3216 9.4278 11.508C9.54052 12.8128 10.0665 13.894 11.0434 14.7887C11.1561 14.9006 11.5318 14.7887 11.6445 14.6396C12.2833 13.2975 13.4104 12.5146 14.6127 11.8062C14.763 11.7317 14.9133 11.6198 15.1012 11.508C15.1012 11.508 15.1012 11.508 15.1387 11.4334C15.0636 11.3961 14.9884 11.3216 14.9133 11.2843C14.0867 10.7996 13.2601 10.315 12.5838 9.64389C11.8324 8.86097 11.3815 7.96622 11.3815 6.88505C11.3815 6.62408 11.5318 6.47495 11.7573 6.43767C11.9827 6.43767 12.2081 6.5868 12.2081 6.81049C12.2081 8.0035 12.8468 8.82369 13.7486 9.53204C14.4249 10.054 15.2139 10.5014 15.9653 10.9115C16.0405 10.9115 16.1156 10.9115 16.1907 10.9115C16.9798 10.4641 17.7688 10.054 18.4826 9.45748C19.1214 8.93554 19.6098 8.37631 19.7977 7.55612C19.8728 7.33243 19.8728 7.07146 19.9104 6.84777C19.9104 6.54952 20.0982 6.40039 20.3237 6.40039C20.5867 6.40039 20.6994 6.54952 20.6994 6.84777C20.6994 7.96622 20.2485 8.86097 19.4971 9.6066C18.8584 10.2777 18.0693 10.7251 17.2428 11.2097C17.1676 11.247 17.0549 11.3216 16.9422 11.3961C17.0549 11.4707 17.13 11.508 17.2052 11.5825C17.8063 11.9553 18.4075 12.3654 18.9711 12.7755C19.4219 13.1111 19.7977 13.5212 20.0982 14.0058C20.2109 14.1922 20.3237 14.3786 20.3988 14.6023C20.5115 14.826 20.8872 14.9006 21.0751 14.7515C22.0144 13.8567 22.5404 12.7755 22.6531 11.4707C22.6531 11.3216 22.6531 11.247 22.4653 11.1724C21.8641 10.9115 21.526 10.2777 21.6387 9.64389C21.7514 9.0101 22.315 8.56272 22.9537 8.56272C23.63 8.56272 24.1936 8.97282 24.3439 9.6066C24.4941 10.2031 24.1936 10.8369 23.63 11.1351C23.5173 11.2097 23.4421 11.2843 23.4421 11.4334C23.367 12.8501 22.841 14.0804 21.8641 15.1243C21.7514 15.2361 21.6762 15.348 21.5635 15.4598C21.5635 15.4971 21.4884 15.5717 21.526 15.6089C21.526 15.6462 21.6011 15.6835 21.6762 15.6835C21.8641 15.6835 22.0895 15.6835 22.2774 15.6835C22.9537 15.6835 23.5924 15.6835 24.2687 15.6835C24.5693 15.6835 24.9074 15.6835 25.208 15.6835C25.3207 15.6835 25.3583 15.6835 25.3959 15.5344C25.5837 15.0497 26.2224 14.6769 26.7485 14.7142C27.312 14.7142 27.8005 15.087 27.9883 15.6089C28.1762 16.1309 27.9883 16.7274 27.575 17.1002C27.1242 17.5103 26.4103 17.5476 25.9219 17.212C25.6589 17.0629 25.471 16.8392 25.3583 16.5783C25.3583 16.541 25.208 16.4664 25.1704 16.4664C24.5693 16.4664 24.0057 16.4664 23.4046 16.4664C22.841 16.4664 22.2774 16.4664 21.7138 16.4664C21.6387 16.4664 21.5635 16.5037 21.526 16.541C21.526 16.6155 21.5635 16.6901 21.6387 16.7274C22.6531 17.6221 23.2167 18.7406 23.4421 20.0454C23.4421 20.2691 23.5173 20.4555 23.5173 20.6792C23.5173 20.8284 23.5548 20.9029 23.7051 20.9775C24.2311 21.2757 24.4941 21.835 24.419 22.3942C24.3439 22.9534 23.893 23.4008 23.2918 23.5126C22.6531 23.6245 21.9392 23.2517 21.7514 22.6179C21.526 21.9468 21.8265 21.2384 22.4653 20.9402C22.6907 20.8656 22.7283 20.7538 22.6907 20.5301C22.578 19.2252 22.052 18.1441 21.0751 17.2866L21 17.212C20.8121 17.2866 20.6618 17.3612 20.4739 17.4357C20.1358 18.2932 19.4971 18.927 18.7832 19.4489C18.2948 19.7845 17.7688 20.12 17.2428 20.4183C17.1676 20.4555 17.0925 20.5301 16.9798 20.5674C17.13 20.6419 17.2428 20.7165 17.3555 20.7911C18.1821 21.2757 18.9711 21.7604 19.6098 22.4315C20.3237 23.1771 20.7745 24.0718 20.7745 25.153C20.7745 25.3394 20.6994 25.4885 20.5115 25.5631C20.3612 25.6377 20.1358 25.5631 20.0607 25.4513C20.0231 25.3767 19.9479 25.3021 19.9479 25.1903C19.9479 24.0718 19.3468 23.2517 18.5202 22.5433C17.8063 21.9468 16.9798 21.4994 16.1907 21.0893C16.1532 21.0893 16.0405 21.0893 16.0029 21.0893C15.1012 21.574 14.237 22.0586 13.4856 22.7297C12.8844 23.2889 12.396 23.9227 12.2833 24.7802C12.2833 24.9293 12.2833 25.0412 12.2833 25.1903C12.2833 25.4513 12.0954 25.6004 11.87 25.6004C11.607 25.6004 11.4567 25.414 11.4567 25.153C11.4567 24.2583 11.7573 23.4753 12.3208 22.767C12.8844 22.0586 13.5983 21.574 14.3873 21.0893C14.6503 20.9402 14.9509 20.7538 15.2514 20.5674L15.1763 20.6419ZM16.0405 20.1573C16.0405 20.1573 16.1156 20.1573 16.1532 20.12C16.9422 19.7099 17.7312 19.2625 18.4075 18.7033C18.8584 18.3305 19.2716 17.9204 19.5722 17.3984C19.6098 17.2866 19.6098 17.2493 19.5346 17.1748C19.3844 17.0256 19.1965 16.9138 19.0838 16.7274C18.7456 16.2427 18.8584 15.348 19.4595 14.9751C19.6098 14.8633 19.6098 14.7887 19.5346 14.6396C19.3092 14.2295 18.9711 13.8567 18.6329 13.5584C17.8815 12.9247 17.0173 12.44 16.1532 11.9926C16.1156 11.9926 16.0029 11.9926 15.9653 11.9926C15.2514 12.44 14.5 12.8501 13.7861 13.3348C13.2601 13.6703 12.8468 14.1177 12.5463 14.6769C12.4711 14.7887 12.4711 14.8633 12.5838 14.9379C12.6966 15.0124 12.8468 15.1243 12.922 15.2361C13.3729 15.8699 13.2226 16.7274 12.5838 17.1375C12.4711 17.212 12.4336 17.2866 12.5087 17.3984C12.7717 17.734 13.0347 18.1068 13.3353 18.4051C14.0867 19.1507 15.026 19.6353 15.9653 20.12C15.9653 20.12 16.0029 20.12 16.0405 20.12V20.1573ZM23.0288 10.4268C23.3294 10.4268 23.5924 10.1658 23.5924 9.86757C23.5924 9.56932 23.3294 9.30835 23.0288 9.30835C22.7283 9.30835 22.4653 9.56932 22.4653 9.86757C22.4653 10.1658 22.7283 10.4268 23.0288 10.4268ZM23.0288 21.6485C22.7283 21.6485 22.4653 21.9095 22.4653 22.2078C22.4653 22.506 22.7283 22.767 23.0288 22.767C23.3294 22.767 23.5924 22.506 23.5924 22.2078C23.5924 21.9095 23.3294 21.6485 23.0288 21.6485ZM9.12723 9.30835C8.82665 9.30835 8.56365 9.56932 8.56365 9.86757C8.56365 10.1658 8.78908 10.4268 9.08966 10.4268C9.39023 10.4268 9.65323 10.1658 9.65323 9.86757C9.65323 9.56932 9.39023 9.30835 9.08966 9.30835H9.12723ZM8.56365 22.1705C8.56365 22.4687 8.82665 22.7297 9.12723 22.7297C9.4278 22.7297 9.69081 22.4687 9.69081 22.1705C9.69081 21.8722 9.4278 21.6113 9.12723 21.6485C8.82665 21.6485 8.56365 21.9095 8.60122 22.2078L8.56365 22.1705ZM5.40761 16.541C5.70818 16.541 5.97119 16.2427 5.97119 15.9445C5.97119 15.6835 5.70818 15.4598 5.40761 15.4598C5.10703 15.4598 4.8816 15.7208 4.8816 15.9818C4.8816 16.28 5.14461 16.5037 5.44518 16.5037L5.40761 16.541ZM26.8236 15.4598C26.4855 15.4598 26.2224 15.6835 26.2224 15.9818C26.2224 16.28 26.4855 16.541 26.8236 16.541C27.049 16.541 27.312 16.28 27.312 15.9818C27.312 15.6835 27.0866 15.4598 26.8236 15.4598ZM11.9075 16.5037C12.133 16.5037 12.3584 16.28 12.396 16.019C12.396 15.7208 12.2457 15.4971 11.9451 15.4971C11.607 15.4971 11.344 15.6462 11.344 15.9818C11.344 16.28 11.5318 16.5037 11.9075 16.5037ZM20.8121 16.019C20.8121 15.7208 20.6242 15.4971 20.3237 15.4971C20.0231 15.4971 19.7601 15.7208 19.7601 15.9818C19.7601 16.2427 20.0607 16.5037 20.3237 16.5037C20.5867 16.5037 20.8121 16.2427 20.8121 15.9818V16.019Z" fill="#4F4F51"/>
<path d="M16.0778 6.88477C16.7916 6.88477 17.5055 6.88477 18.2194 6.88477C18.5575 6.88477 18.7829 7.18302 18.5951 7.48127C18.5575 7.55583 18.4448 7.6304 18.3321 7.66768C18.2569 7.66768 18.1818 7.66768 18.1066 7.66768C16.7165 7.66768 15.3263 7.66768 13.9362 7.66768C13.8986 7.66768 13.8234 7.66768 13.7859 7.66768C13.5604 7.66768 13.4102 7.48127 13.4102 7.25758C13.4102 7.03389 13.5604 6.88477 13.7859 6.88477C14.0865 6.88477 14.387 6.88477 14.6876 6.88477C15.1385 6.88477 15.5893 6.88477 16.0026 6.88477H16.0778Z" fill="#4F4F51"/>
<path d="M16.0779 23.2889C15.8901 23.2889 15.6646 23.2889 15.4768 23.2889C15.2138 23.2889 15.0635 23.1398 15.0635 22.8788C15.0635 22.6552 15.2138 22.4688 15.4768 22.4688C15.8901 22.4688 16.3409 22.4688 16.7542 22.4688C16.9796 22.4688 17.1299 22.6552 17.1299 22.8788C17.1299 23.1025 16.9796 23.2889 16.7166 23.2889C16.4912 23.2889 16.3033 23.2889 16.0779 23.2889Z" fill="#4F4F51"/>
<path d="M16.0779 9.56922C15.8901 9.56922 15.6646 9.56922 15.4768 9.56922C15.2138 9.56922 15.0635 9.38281 15.0635 9.15912C15.0635 8.93543 15.2138 8.74902 15.4768 8.74902C15.8901 8.74902 16.3033 8.74902 16.7166 8.74902C16.9796 8.74902 17.1299 8.93543 17.1299 9.15912C17.1299 9.38281 16.9421 9.56922 16.6791 9.56922C16.4912 9.56922 16.3033 9.56922 16.0779 9.56922Z" fill="#4F4F51"/>
<path d="M23.0663 10.427C22.7657 10.427 22.5027 10.1661 22.5027 9.86782C22.5027 9.56956 22.7657 9.30859 23.0663 9.30859C23.3668 9.30859 23.5923 9.56956 23.6298 9.86782C23.6298 10.1661 23.3668 10.427 23.0663 10.427Z" fill="#4F4F51"/>
<path d="M23.0287 21.6484C23.3292 21.6484 23.5922 21.9094 23.5922 22.2077C23.5922 22.5059 23.3292 22.7669 23.0287 22.7669C22.7281 22.7669 22.4651 22.5059 22.4651 22.2077C22.4651 21.9094 22.7281 21.6484 23.0287 21.6484Z" fill="#4F4F51"/>
<path d="M9.12708 9.30859C9.42766 9.30859 9.69066 9.56956 9.69066 9.86782C9.69066 10.1661 9.42766 10.427 9.12708 10.427C8.82651 10.427 8.60107 10.1661 8.60107 9.86782C8.60107 9.56956 8.86408 9.30859 9.16465 9.30859H9.12708Z" fill="#4F4F51"/>
<path d="M8.56345 22.2077C8.56345 21.9094 8.82645 21.6484 9.08946 21.6484C9.39003 21.6484 9.65304 21.9094 9.65304 22.1704C9.65304 22.4686 9.39003 22.7296 9.08946 22.7296C8.78888 22.7296 8.52588 22.4686 8.52588 22.1704L8.56345 22.2077Z" fill="#4F4F51"/>
<path d="M5.40757 16.5781C5.107 16.5781 4.84399 16.3544 4.84399 16.0561C4.84399 15.7579 5.06943 15.5342 5.37 15.5342C5.67058 15.5342 5.93358 15.7206 5.93358 16.0188C5.93358 16.3171 5.67058 16.6153 5.37 16.6153L5.40757 16.5781Z" fill="#4F4F51"/>
<path d="M26.8233 15.4971C27.0863 15.4971 27.3118 15.7208 27.3118 16.019C27.3118 16.28 27.0488 16.5782 26.8233 16.5782C26.4852 16.5782 26.2222 16.3173 26.2222 16.019C26.2222 15.7208 26.4852 15.4971 26.8233 15.4971Z" fill="#4F4F51"/>
<path d="M11.9072 16.5408C11.5315 16.5408 11.3061 16.3171 11.3437 16.0188C11.3437 15.7206 11.6067 15.5342 11.9448 15.5342C12.2454 15.5342 12.3957 15.7579 12.3957 16.0561C12.3957 16.3171 12.1702 16.5408 11.9072 16.5408Z" fill="#4F4F51"/>
<path d="M20.812 16.0569C20.812 16.3179 20.549 16.5789 20.3236 16.5789C20.0606 16.5789 19.76 16.2806 19.76 16.0569C19.76 15.796 20.023 15.5723 20.3236 15.5723C20.6242 15.5723 20.812 15.796 20.812 16.0942V16.0569Z" fill="#4F4F51"/>
<path d="M16.0403 17.7715C15.4767 17.7715 14.9132 17.7715 14.3496 17.7715C14.0114 17.7715 13.786 17.436 13.9739 17.1378C14.049 16.9886 14.1993 16.9141 14.3872 16.9141C14.9507 16.9141 15.5519 16.9141 16.1155 16.9141C16.6415 16.9141 17.1675 16.9141 17.6935 16.9141C17.9565 16.9141 18.1819 17.0632 18.1819 17.2869C18.1819 17.5478 17.9941 17.7715 17.7311 17.7715C17.1675 17.7715 16.6039 17.7715 16.0027 17.7715H16.0403Z" fill="#4F4F51"/>
<path d="M16.078 14.2666C16.6415 14.2666 17.2051 14.2666 17.7687 14.2666C18.1069 14.2666 18.3323 14.6021 18.1444 14.9004C18.0693 15.0495 17.919 15.0868 17.7687 15.0868C17.0548 15.0868 16.341 15.0868 15.5895 15.0868C15.1762 15.0868 14.763 15.0868 14.3872 15.0868C14.0491 15.0868 13.8612 14.8258 13.9364 14.5276C14.0115 14.3412 14.1618 14.2666 14.3872 14.2666C14.9508 14.2666 15.4768 14.2666 16.0404 14.2666H16.078Z" fill="#4F4F51"/>
</g>
<defs>
<clipPath id="clip0_2157_4110">
<rect width="24" height="24" fill="white" transform="translate(4 4)"/>
</clipPath>
</defs>
</svg>
