<svg width="32" height="32" viewBox="0 0 32 32" fill="none" xmlns="http://www.w3.org/2000/svg">
<rect width="32" height="32" rx="4" fill="#FEF6E2"/>
<path d="M17.3034 15.35C17.3034 15.2733 17.2267 15.235 17.2267 15.1583C16.8051 14.2767 16.3451 13.395 15.9617 12.5133C15.8467 12.2833 15.8084 12.015 15.7317 11.785C15.6934 11.5933 15.7701 11.44 15.9234 11.2867C16.4984 10.7117 17.0734 10.1367 17.6484 9.56167C17.8017 9.37 18.0317 9.37 18.2617 9.40833C18.6451 9.52333 18.9901 9.63833 19.3351 9.79167C20.0634 10.1367 20.7917 10.52 21.5201 10.865C21.5584 10.865 21.6351 10.9033 21.7117 10.9033C21.7117 10.8267 21.6734 10.7883 21.6351 10.7117C21.1751 9.79167 20.7534 8.87167 20.2934 7.91333C20.2167 7.72167 20.1784 7.49167 20.1401 7.26167C20.1401 7.10833 20.1784 6.955 20.2934 6.84C20.8684 6.265 21.4434 5.69 22.0184 5.115C22.0951 5.03833 22.2101 5 22.3251 5C22.4784 5 22.5934 5.115 22.6317 5.26833C22.6317 5.46 22.6317 5.69 22.7467 5.88167C23.1684 6.76333 23.5901 7.645 24.0117 8.48833C24.5101 9.485 25.0084 10.4433 25.4684 11.44C25.6217 11.7083 25.6984 12.0533 25.7751 12.36C25.8517 12.59 25.7751 12.7817 25.5834 12.9733C25.0084 13.51 24.4717 14.0467 23.9351 14.6217C23.7051 14.8517 23.4751 14.9283 23.1684 14.8517C22.6317 14.66 22.0951 14.4683 21.5967 14.2383C21.0984 14.0083 20.6384 13.74 20.1401 13.51C20.0634 13.51 20.0251 13.4333 19.9101 13.395C19.9484 13.51 19.9484 13.5483 19.9867 13.5867C20.3701 14.3917 20.7534 15.1967 21.1367 16.0017C21.2517 16.27 21.3284 16.5383 21.3667 16.845C21.4051 17.0367 21.3667 17.19 21.2134 17.3433C20.6384 17.9183 20.0251 18.4933 19.4501 19.1067C19.2967 19.26 19.1434 19.3367 18.9517 19.2983C18.6451 19.2217 18.3384 19.1833 18.0701 19.0683C17.2651 18.7233 16.4984 18.3017 15.6934 17.9183C15.6551 17.9183 15.5784 17.88 15.4634 17.8033C15.5017 17.9183 15.5401 17.995 15.5784 18.0717C15.9617 18.915 16.3834 19.7583 16.7667 20.6017C16.8817 20.8317 16.9201 21.1 16.9201 21.3683C16.9201 21.4833 16.8434 21.6367 16.7667 21.7517C16.2301 22.2883 15.6551 22.825 15.1184 23.4C14.8501 23.7067 14.5434 23.745 14.2367 23.63C13.7001 23.4383 13.2017 23.2467 12.7034 23.0167C12.2051 22.7867 11.7451 22.5567 11.2851 22.2883C11.2467 22.2883 11.1701 22.25 11.0934 22.25C11.0934 22.3267 11.1317 22.365 11.1701 22.4417C11.5534 23.285 11.9751 24.09 12.3584 24.9333C12.4734 25.2017 12.5117 25.47 12.5501 25.7767C12.5501 25.8917 12.4734 26.0833 12.3967 26.16C11.8217 26.735 11.2467 27.31 10.6717 27.885C10.5951 27.9617 10.4801 28 10.4034 28C10.2501 28 10.0967 27.885 10.1351 27.7317C10.1734 27.3867 10.0584 27.1183 9.94341 26.85C9.52174 25.9683 9.10008 25.0867 8.64008 24.205C8.18008 23.2467 7.72008 22.3267 7.26008 21.3683C7.14508 21.1383 7.06841 20.87 7.03008 20.6017C6.95341 20.3717 7.03008 20.18 7.18341 20.0267C7.75841 19.4517 8.33341 18.8767 8.90841 18.3017C9.13841 18.0717 9.36841 18.0717 9.63674 18.1867C10.1734 18.3783 10.7101 18.6083 11.2084 18.8383C11.7451 19.1067 12.2817 19.375 12.8184 19.6433C12.8567 19.6433 12.8951 19.6817 13.0101 19.72C12.9717 19.605 12.9334 19.5667 12.9334 19.49C12.5117 18.6083 12.0517 17.6883 11.6301 16.8067C11.5151 16.5767 11.4767 16.3467 11.4384 16.1167C11.4384 15.9633 11.4384 15.7717 11.5917 15.6567C12.2051 15.0433 12.7801 14.4683 13.3934 13.855C13.5467 13.7017 13.7384 13.6633 13.9301 13.74C14.4667 13.9317 14.9651 14.1233 15.4634 14.3533C16.0767 14.6217 16.6517 14.9667 17.2651 15.235C17.3034 15.235 17.3801 15.2733 17.4184 15.3117L17.3034 15.35ZM23.8201 13.8933C24.1267 13.5867 24.4334 13.28 24.7017 12.9733C25.1234 12.5517 25.1617 12.5133 24.8934 11.9767C24.4334 11.0183 23.9734 10.06 23.5134 9.10167C23.0534 8.14333 22.5934 7.22333 22.1334 6.265C22.1334 6.18833 22.0567 6.11167 22.0184 5.99667C21.9417 6.07333 21.9034 6.11167 21.8651 6.15C21.5201 6.495 21.2134 6.84 20.8684 7.14667C20.7534 7.26167 20.7151 7.37667 20.7917 7.53C21.0217 8.06667 21.2517 8.64167 21.5201 9.17833C22.1334 10.405 22.7851 11.6317 23.3984 12.8583C23.5517 13.165 23.6667 13.51 23.8584 13.855L23.8201 13.8933ZM10.5951 27.08C10.6717 27.0417 10.7101 26.965 10.7484 26.9267C11.0167 26.6583 11.2851 26.3517 11.5917 26.1217C11.8984 25.8917 11.9367 25.6233 11.7834 25.3167C11.4384 24.5883 11.0934 23.8217 10.7484 23.0933C10.2117 21.9817 9.63674 20.8317 9.06174 19.72C8.98508 19.5667 8.90841 19.4133 8.83174 19.2217C8.75508 19.2983 8.71674 19.3367 8.67841 19.375C8.37174 19.6817 8.06508 20.0267 7.72008 20.3333C7.56674 20.4867 7.52841 20.6017 7.60508 20.7933C7.87341 21.4067 8.14174 22.02 8.44841 22.6333C9.06174 23.8983 9.71341 25.1633 10.3651 26.4283C10.4417 26.62 10.5184 26.8117 10.6334 27.0417L10.5951 27.08ZM17.6101 10.405C17.2651 10.75 16.9584 11.095 16.6134 11.4017C16.3451 11.6317 16.3067 11.8617 16.4601 12.13C16.9201 13.05 17.3801 14.0083 17.8401 14.9283C18.3384 15.9633 18.8367 16.96 19.3351 17.995C19.3351 18.0717 19.4117 18.1483 19.4501 18.225C19.5267 18.1867 19.5651 18.1483 19.6034 18.11C19.9101 17.8033 20.1784 17.4967 20.4851 17.2667C20.7534 17.0367 20.7917 16.8067 20.6384 16.5383C20.2934 15.7717 19.9484 15.005 19.5651 14.2383C19.0284 13.1267 18.4534 12.0533 17.9167 10.9417C17.8401 10.7883 17.7634 10.5967 17.6867 10.405H17.6101ZM15.0034 22.6333C15.0034 22.6333 15.0801 22.5567 15.1184 22.5183C15.3867 22.25 15.6551 21.9817 15.9234 21.7133C16.3451 21.2917 16.3451 21.2917 16.1151 20.755C15.7701 19.9883 15.3867 19.1833 15.0034 18.4167C14.4284 17.2283 13.8534 16.04 13.2401 14.8517C13.2401 14.8517 13.2401 14.8133 13.1634 14.775C12.7417 15.1967 12.3584 15.58 11.9367 16.0017C11.8984 16.04 11.8984 16.155 11.9367 16.2317C12.0517 16.5383 12.1667 16.845 12.3201 17.1517C12.8567 18.2633 13.4701 19.375 14.0067 20.4867C14.3517 21.1767 14.6584 21.8667 15.0034 22.595V22.6333ZM18.7984 18.7233C18.7984 18.7233 18.7984 18.7233 18.8367 18.685C18.8367 18.57 18.7984 18.455 18.7217 18.34C18.4534 17.7267 18.1467 17.1133 17.8784 16.4617C17.8401 16.385 17.7634 16.3083 17.6484 16.2317C17.2267 16.0017 16.8051 15.7717 16.3834 15.58C15.6167 15.1967 14.8117 14.8133 14.0451 14.4683C13.9684 14.43 13.8917 14.43 13.7384 14.3533C13.7384 14.4683 13.7767 14.545 13.8151 14.6217C14.1601 15.3117 14.4667 16.04 14.8117 16.73C14.8117 16.8067 14.8884 16.845 14.9651 16.8833C16.0001 17.42 17.0734 17.9183 18.1084 18.455C18.3001 18.57 18.5301 18.6083 18.7601 18.685L18.7984 18.7233ZM14.4667 23.1317C14.4284 22.9783 14.3901 22.8633 14.3517 22.7867C14.0451 22.135 13.7384 21.4833 13.4317 20.7933C13.4317 20.7167 13.3167 20.6783 13.2401 20.64C12.7801 20.41 12.3584 20.18 11.8984 19.95C11.1317 19.5667 10.4034 19.2217 9.63674 18.8767C9.56008 18.8383 9.44508 18.8383 9.33008 18.7617C9.33008 18.8767 9.36841 18.915 9.40674 18.9917C9.71341 19.6433 10.0201 20.295 10.2884 20.9467C10.3651 21.1767 10.5184 21.33 10.7484 21.4067C10.9401 21.4833 11.1317 21.5983 11.3234 21.7133C12.2051 22.135 13.0867 22.5567 13.9684 22.9783C14.0834 23.055 14.2367 23.055 14.4284 23.1317H14.4667ZM18.2234 9.98333C18.2234 9.98333 18.2234 9.98333 18.1851 10.0217C18.1851 10.0983 18.1851 10.175 18.2617 10.2517C18.5684 10.9417 18.9134 11.5933 19.2201 12.2833C19.2967 12.4367 19.3734 12.5133 19.5267 12.59C20.1017 12.8967 20.6767 13.2033 21.2517 13.4717C21.7884 13.74 22.3634 13.97 22.9001 14.2383C23.0151 14.2767 23.0917 14.315 23.2451 14.3533C23.2451 14.2 23.2067 14.1233 23.1684 14.0467C22.8617 13.3567 22.5551 12.705 22.2484 12.0533C22.2484 12.015 22.1717 11.9383 22.1334 11.9383C21.0217 11.3633 19.9101 10.8267 18.7984 10.29C18.6067 10.2133 18.4151 10.1367 18.2234 10.06V9.98333Z" fill="#4F4F51"/>
</svg>
