<svg width="20" height="20" viewBox="0 0 20 20" fill="none" xmlns="http://www.w3.org/2000/svg">
<path d="M18.9552 2.63126V2.64332L14.2775 18.0701C14.2067 18.3206 14.061 18.5435 13.8598 18.7089C13.6587 18.8743 13.4118 18.9741 13.1523 18.9952C13.1153 18.9984 13.0784 19 13.0414 19C12.7982 19.0007 12.5598 18.9319 12.3545 18.8016C12.1491 18.6713 11.9853 18.4849 11.8824 18.2646L8.95684 12.2607C8.92756 12.2006 8.91779 12.1328 8.92889 12.0668C8.93998 12.0008 8.97138 11.9399 9.01872 11.8926L13.6739 7.23742C13.7894 7.11586 13.8528 6.95399 13.8507 6.78632C13.8485 6.61866 13.781 6.45847 13.6624 6.3399C13.5439 6.22133 13.3837 6.15377 13.216 6.15163C13.0483 6.14948 12.8865 6.21291 12.7649 6.32841L8.1073 10.9836C8.06001 11.0309 7.99913 11.0623 7.93315 11.0734C7.86716 11.0845 7.79936 11.0748 7.73919 11.0455L1.72972 8.12072C1.49472 8.00798 1.29954 7.8265 1.17002 7.60032C1.0405 7.37414 0.982764 7.11394 1.00447 6.85421C1.02617 6.59447 1.12628 6.34746 1.29154 6.14591C1.4568 5.94437 1.6794 5.79779 1.92985 5.72561L17.3566 1.04792H17.3687C17.5883 0.986208 17.8204 0.984045 18.0412 1.04165C18.2619 1.09925 18.4634 1.21455 18.6249 1.37571C18.7864 1.53688 18.9021 1.7381 18.9601 1.95874C19.0182 2.17938 19.0165 2.41149 18.9552 2.63126Z" fill="#006666"/>
</svg>
