<svg width="20" height="20" viewBox="0 0 20 20" fill="none" xmlns="http://www.w3.org/2000/svg">
<path d="M19.5 10.9993C19.4343 11.0486 19.3596 11.0844 19.2801 11.1048C19.2006 11.1251 19.1179 11.1297 19.0366 11.118C18.9554 11.1064 18.8772 11.0789 18.8066 11.0371C18.7359 10.9953 18.6742 10.94 18.625 10.8743C18.2483 10.368 17.7579 9.95713 17.1935 9.67489C16.629 9.39264 16.0061 9.24688 15.375 9.24933C15.2521 9.24931 15.1319 9.21307 15.0295 9.14512C14.9271 9.07717 14.847 8.98053 14.7992 8.86729C14.7668 8.7904 14.7501 8.70779 14.7501 8.62433C14.7501 8.54087 14.7668 8.45825 14.7992 8.38136C14.847 8.26812 14.9271 8.17148 15.0295 8.10353C15.1319 8.03558 15.2521 7.99934 15.375 7.99933C15.7257 7.99929 16.0693 7.90092 16.3669 7.71537C16.6645 7.52983 16.904 7.26455 17.0584 6.94967C17.2128 6.63479 17.2757 6.28293 17.2402 5.93406C17.2046 5.58519 17.0719 5.25329 16.8571 4.97606C16.6423 4.69883 16.3541 4.48739 16.0252 4.36574C15.6963 4.2441 15.3399 4.21713 14.9964 4.28791C14.653 4.35868 14.3362 4.52435 14.0822 4.76612C13.8282 5.00788 13.647 5.31603 13.5594 5.65558C13.5388 5.73509 13.5029 5.80978 13.4535 5.87538C13.4041 5.94099 13.3423 5.99623 13.2715 6.03794C13.2008 6.07966 13.1226 6.10703 13.0412 6.1185C12.9599 6.12997 12.8772 6.12531 12.7976 6.10479C12.7181 6.08428 12.6434 6.0483 12.5778 5.99891C12.5122 5.94953 12.457 5.8877 12.4153 5.81697C12.3736 5.74624 12.3462 5.66798 12.3347 5.58667C12.3233 5.50536 12.3279 5.42259 12.3484 5.34308C12.4701 4.87223 12.7 4.43628 13.0198 4.06991C13.3396 3.70355 13.7406 3.41688 14.1907 3.23272C14.6408 3.04857 15.1276 2.972 15.6125 3.00912C16.0974 3.04623 16.567 3.19601 16.9838 3.44652C17.4006 3.69704 17.7532 4.04138 18.0136 4.45215C18.2739 4.86292 18.4348 5.32878 18.4834 5.81267C18.532 6.29655 18.467 6.7851 18.2936 7.23944C18.1201 7.69378 17.843 8.10138 17.4844 8.42979C18.3342 8.79776 19.073 9.38168 19.6273 10.1235C19.6766 10.1894 19.7124 10.2643 19.7326 10.3439C19.7529 10.4236 19.7572 10.5065 19.7454 10.5879C19.7335 10.6692 19.7058 10.7474 19.6637 10.818C19.6216 10.8886 19.5659 10.9502 19.5 10.9993ZM15.2906 15.8118C15.3358 15.883 15.3662 15.9625 15.3799 16.0457C15.3936 16.1289 15.3903 16.2139 15.3702 16.2958C15.3502 16.3777 15.3138 16.4547 15.2632 16.5221C15.2126 16.5895 15.1489 16.646 15.0759 16.6882C15.003 16.7304 14.9222 16.7574 14.8385 16.7676C14.7549 16.7777 14.67 16.7709 14.589 16.7474C14.5081 16.7239 14.4327 16.6843 14.3675 16.6309C14.3022 16.5775 14.2484 16.5115 14.2094 16.4368C13.8157 15.7702 13.2549 15.2177 12.5825 14.8339C11.9101 14.45 11.1492 14.2482 10.375 14.2482C9.60075 14.2482 8.83988 14.45 8.16747 14.8339C7.49506 15.2177 6.93433 15.7702 6.54062 16.4368C6.50154 16.5115 6.44777 16.5775 6.38252 16.6309C6.31727 16.6843 6.24191 16.7239 6.16095 16.7474C6.08 16.7709 5.99513 16.7777 5.91145 16.7676C5.82777 16.7574 5.74701 16.7304 5.67404 16.6882C5.60106 16.646 5.53737 16.5895 5.48679 16.5221C5.43622 16.4547 5.39981 16.3777 5.37976 16.2958C5.3597 16.2139 5.35642 16.1289 5.3701 16.0457C5.38378 15.9625 5.41414 15.883 5.45937 15.8118C6.0653 14.7707 6.9892 13.9514 8.0953 13.4743C7.4729 12.9978 7.01548 12.3382 6.78733 11.5883C6.55919 10.8383 6.57179 10.0357 6.82336 9.29331C7.07494 8.5509 7.55284 7.90599 8.18989 7.44923C8.82694 6.99247 9.59111 6.74682 10.375 6.74682C11.1589 6.74682 11.923 6.99247 12.5601 7.44923C13.1971 7.90599 13.675 8.5509 13.9266 9.29331C14.1782 10.0357 14.1908 10.8383 13.9626 11.5883C13.7345 12.3382 13.2771 12.9978 12.6547 13.4743C13.7608 13.9514 14.6847 14.7707 15.2906 15.8118ZM10.375 12.9993C10.8694 12.9993 11.3528 12.8527 11.7639 12.578C12.175 12.3033 12.4955 11.9128 12.6847 11.456C12.8739 10.9992 12.9234 10.4966 12.827 10.0116C12.7305 9.52665 12.4924 9.08119 12.1428 8.73156C11.7931 8.38193 11.3477 8.14383 10.8627 8.04736C10.3778 7.9509 9.8751 8.00041 9.41828 8.18963C8.96147 8.37885 8.57102 8.69928 8.29632 9.1104C8.02161 9.52152 7.87499 10.0049 7.87499 10.4993C7.87499 11.1624 8.13838 11.7983 8.60722 12.2671C9.07607 12.7359 9.71195 12.9993 10.375 12.9993ZM5.99999 8.62433C5.99999 8.45857 5.93414 8.29959 5.81693 8.18238C5.69972 8.06517 5.54075 7.99933 5.37499 7.99933C5.02431 7.99929 4.68067 7.90092 4.38309 7.71537C4.08552 7.52983 3.84594 7.26455 3.69158 6.94967C3.53721 6.63479 3.47425 6.28293 3.50983 5.93406C3.54542 5.58519 3.67813 5.25329 3.89289 4.97606C4.10765 4.69883 4.39585 4.48739 4.72476 4.36574C5.05366 4.2441 5.41009 4.21713 5.75356 4.28791C6.09702 4.35868 6.41376 4.52435 6.66778 4.76612C6.92181 5.00788 7.10295 5.31603 7.19062 5.65558C7.23206 5.81616 7.33559 5.9537 7.47844 6.03794C7.62129 6.12219 7.79175 6.14623 7.95233 6.10479C8.11291 6.06335 8.25046 5.95982 8.3347 5.81697C8.41895 5.67412 8.44299 5.50366 8.40155 5.34308C8.27987 4.87223 8.04997 4.43628 7.73016 4.06991C7.41034 3.70355 7.00943 3.41688 6.55933 3.23272C6.10923 3.04857 5.62236 2.972 5.13746 3.00912C4.65256 3.04623 4.18301 3.19601 3.76618 3.44652C3.34935 3.69704 2.99674 4.04138 2.73641 4.45215C2.47608 4.86292 2.31521 5.32878 2.26661 5.81267C2.218 6.29655 2.283 6.7851 2.45643 7.23944C2.62986 7.69378 2.90694 8.10138 3.26562 8.42979C2.41662 8.79811 1.67867 9.382 1.12499 10.1235C1.07569 10.1892 1.03981 10.2639 1.01939 10.3435C0.998978 10.423 0.994425 10.5058 1.006 10.587C1.01757 10.6683 1.04504 10.7465 1.08683 10.8172C1.12863 10.8879 1.18394 10.9496 1.2496 10.9989C1.31526 11.0482 1.38999 11.0841 1.46952 11.1045C1.54904 11.1249 1.63182 11.1295 1.7131 11.1179C1.79439 11.1064 1.8726 11.0789 1.94327 11.0371C2.01395 10.9953 2.07569 10.94 2.12499 10.8743C2.5017 10.368 2.99203 9.95713 3.55652 9.67489C4.12101 9.39264 4.74388 9.24688 5.37499 9.24933C5.54075 9.24933 5.69972 9.18348 5.81693 9.06627C5.93414 8.94906 5.99999 8.79009 5.99999 8.62433Z" fill="#1D1D1F"/>
</svg>
